subject_05
version=1
nRows=238
nColumns=3
inDegrees=yes
endheader
time	r_shoulder_elev	r_elbow_flex
136.7700	19.716728	41.006795
136.7800	19.716728	41.107152
136.7900	19.716728	40.883450
136.8000	19.716728	40.521358
136.8100	19.716728	40.243939
136.8200	19.716728	40.249551
136.8300	19.716728	40.663812
136.8400	19.716728	41.512471
136.8500	19.716728	42.714441
136.8600	19.716728	44.092559
136.8700	19.716728	45.402523
136.8800	19.716728	46.382536
136.8900	19.716728	46.822171
136.9000	19.716728	46.638139
136.9100	19.716728	45.931898
136.9200	19.716728	44.998429
136.9300	19.716728	44.264721
136.9400	19.716728	44.161258
136.9500	19.716728	44.962014
136.9600	19.716728	46.652823
136.9700	19.716728	48.890059
136.9800	19.716728	51.084653
136.9900	19.716728	52.597768
137.0000	19.716728	52.983140
137.0100	19.716728	52.180957
137.0200	19.716728	50.576448
137.0300	19.716728	48.884421
137.0400	19.716728	47.891634
137.0500	19.716728	48.152554
137.0600	19.716728	49.761463
137.0700	19.716728	52.299696
137.0800	19.716728	54.988083
137.0900	19.716728	56.989027
137.1000	19.716728	57.737116
137.1100	19.716728	57.161549
137.1200	19.716728	55.706816
137.1300	19.716728	54.142690
137.1400	19.716728	53.244391
137.1500	19.716728	53.479174
137.1600	19.716728	54.831658
137.1700	19.716728	56.838400
137.1800	19.716728	58.809999
137.1900	19.716728	60.137579
137.2000	19.716728	60.546394
137.2100	19.716728	60.187235
137.2200	19.716728	59.532787
137.2300	19.716728	59.135502
137.2400	19.716728	59.364669
137.2500	19.716728	60.245609
137.2600	19.716728	61.471960
137.2700	19.716728	62.578139
137.2800	19.716728	63.183344
137.2900	19.716728	63.186303
137.3000	19.716728	62.816184
137.3100	19.716728	62.516191
137.3200	19.716728	62.718086
137.3300	19.716728	63.618867
137.3400	19.716728	65.069880
137.3500	19.716728	66.634433
137.3600	19.716728	67.788629
137.3700	19.716728	68.170708
137.3800	19.716728	67.759907
137.3900	19.716728	66.898344
137.4000	19.716728	66.143258
137.4100	19.716728	66.016965
137.4200	19.716728	66.770284
137.4300	19.716728	68.269018
137.4400	19.716728	70.055616
137.4500	19.716728	71.556597
137.4600	19.716728	72.339166
137.4700	19.716728	72.299019
137.4800	19.716728	71.695033
137.4900	19.716728	71.018773
137.5000	19.716728	70.763250
137.5100	19.716728	71.200177
137.5200	19.716728	72.267958
137.5300	19.716728	73.618209
137.5400	19.716728	74.793350
137.5500	19.716728	75.447563
137.5600	19.716728	75.505955
137.5700	19.716728	75.189162
137.5800	19.716728	74.896231
137.5900	19.716728	75.005678
137.6000	19.716728	75.691444
137.6100	19.716728	76.840714
137.6200	19.716728	78.110126
137.6300	19.716728	79.090746
137.6400	19.716728	79.501935
137.6500	19.716728	79.322824
137.6600	19.716728	78.801813
137.6700	19.716728	78.342715
137.6800	19.716728	78.323024
137.6900	19.716728	78.928770
137.7000	19.716728	80.079308
137.7100	19.716728	81.471341
137.7200	19.716728	82.716356
137.7300	19.716728	83.505557
137.7400	19.716728	83.728847
137.7500	19.716728	83.500553
137.7600	19.716728	83.090051
137.7700	19.716728	82.797559
137.7800	19.716728	82.834995
137.7900	19.716728	83.261943
137.8000	19.716728	83.995012
137.8100	19.716728	84.872755
137.8200	19.716728	85.735647
137.8300	19.716728	86.481060
137.8400	19.716728	87.073627
137.8500	19.716728	87.518970
137.8600	19.716728	87.827900
137.8700	19.716728	87.999187
137.8800	19.716728	88.032766
137.8900	19.716728	87.962229
137.9000	19.716728	87.879830
137.9100	19.716728	87.928484
137.9200	19.716728	88.253433
137.9300	19.716728	88.931463
137.9400	19.716728	89.913439
137.9500	19.716728	91.015424
137.9600	19.716728	91.973260
137.9700	19.716728	92.544371
137.9800	19.716728	92.614312
137.9900	19.716728	92.258342
138.0000	19.716728	91.725120
138.0100	19.716728	91.343753
138.0200	19.716728	91.391150
138.0300	19.716728	91.976669
138.0400	19.716728	92.995294
138.0500	19.716728	94.171006
138.0600	19.716728	95.172017
138.0700	19.716728	95.747636
138.0800	19.716728	95.827425
138.0900	19.716728	95.541057
138.1000	19.716728	95.153347
138.1100	19.716728	94.946344
138.1200	19.716728	95.102142
138.1300	19.716728	95.636739
138.1400	19.716728	96.409681
138.1500	19.716728	97.199008
138.1600	19.716728	97.803066
138.1700	19.716728	98.122196
138.1800	19.716728	98.186804
138.1900	19.716728	98.125840
138.2000	19.716728	98.097192
138.2100	19.716728	98.216233
138.2200	19.716728	98.514796
138.2300	19.716728	98.944274
138.2400	19.716728	99.413692
138.2500	19.716728	99.838337
138.2600	19.716728	100.173511
138.2700	19.716728	100.420064
138.2800	19.716728	100.605715
138.2900	19.716728	100.758831
138.3000	19.716728	100.892774
138.3100	19.716728	101.009439
138.3200	19.716728	101.116434
138.3300	19.716728	101.242499
138.3400	19.716728	101.436199
138.3500	19.716728	101.743572
138.3600	19.716728	102.175071
138.3700	19.716728	102.681846
138.3800	19.716728	103.159722
138.3900	19.716728	103.485964
138.4000	19.716728	103.575577
138.4100	19.716728	103.430467
138.4200	19.716728	103.154381
138.4300	19.716728	102.920744
138.4400	19.716728	102.903115
138.4500	19.716728	103.197900
138.4600	19.716728	103.775565
138.4700	19.716728	104.485603
138.4800	19.716728	105.116277
138.4900	19.716728	105.484094
138.5000	19.716728	105.512841
138.5100	19.716728	105.265679
138.5200	19.716728	104.915119
138.5300	19.716728	104.664680
138.5400	19.716728	104.658749
138.5500	19.716728	104.922564
138.5600	19.716728	105.359507
138.5700	19.716728	105.805226
138.5800	19.716728	106.110851
138.5900	19.716728	106.214127
138.6000	19.716728	106.164041
138.6100	19.716728	106.088103
138.6200	19.716728	106.120046
138.6300	19.716728	106.325252
138.6400	19.716728	106.662084
138.6500	19.716728	106.999234
138.6600	19.716728	107.181163
138.6700	19.716728	107.109668
138.6800	19.716728	106.801231
138.6900	19.716728	106.391153
138.7000	19.716728	106.080793
138.7100	19.716728	106.051156
138.7200	19.716728	106.381794
138.7300	19.716728	107.011226
138.7400	19.716728	107.755937
138.7500	19.716728	108.378871
138.7600	19.716728	108.677737
138.7700	19.716728	108.557215
138.7800	19.716728	108.058843
138.7900	19.716728	107.341983
138.8000	19.716728	106.628670
138.8100	19.716728	106.135889
138.8200	19.716728	106.017718
138.8300	19.716728	106.330259
138.8400	19.716728	107.021329
138.8500	19.716728	107.940607
138.8600	19.716728	108.866246
138.8700	19.716728	109.547233
138.8800	19.716728	109.761486
138.8900	19.716728	109.383704
138.9000	19.716728	108.446069
138.9100	19.716728	107.165681
138.9200	19.716728	105.913829
138.9300	19.716728	105.118515
138.9400	19.716728	105.119797
138.9500	19.716728	106.025794
138.9600	19.716728	107.630463
138.9700	19.716728	109.441483
138.9800	19.716728	110.827923
138.9900	19.716728	111.246265
139.0000	19.716728	110.461898
139.0100	19.716728	108.672715
139.0200	19.716728	106.471384
139.0300	19.716728	104.644894
139.0400	19.716728	103.879659
139.0500	19.716728	104.486994
139.0600	19.716728	106.264212
139.0700	19.716728	108.556742
139.0800	19.716728	110.504837
139.0900	19.716728	111.379568
139.1000	19.716728	110.871272
139.1100	19.716728	109.209850
139.1200	19.716728	107.065243
139.1300	19.716728	105.269245
139.1400	19.716728	104.476235
